<?xml version="1.0" encoding="utf-8"?>
<!-- Generator: Adobe Illustrator 25.4.1, SVG Export Plug-In . SVG Version: 6.00 Build 0)  -->
<svg version="1.1" id="Capa_1" xmlns="http://www.w3.org/2000/svg" xmlns:xlink="http://www.w3.org/1999/xlink" x="0px" y="0px"
	 viewBox="0 0 1080 1080" style="enable-background:new 0 0 1080 1080;" xml:space="preserve">
<style type="text/css">
	.st0{fill:#090909;}
</style>
<path class="st0" d="M546.2,1063.15c-12.25-4.53-20.97-13.82-30.05-22.51c-107.28-102.61-200.26-216.26-267.7-349.35
	c-31.18-61.53-54.71-125.93-63.27-194.62c-18.27-146.65,28.03-268.4,145.91-359.51c72.54-56.07,156.24-80.77,247.74-73.3
	c141.85,11.57,245.29,82.51,310.18,208.63c34.29,66.65,43.69,138.24,35.24,212.46c-9.41,82.67-38.14,158.95-77.61,231.36
	c-69.24,127.02-160.66,236.61-266.09,334.99c-6.06,5.66-13.01,9.24-20.67,11.86C555.33,1063.15,550.76,1063.15,546.2,1063.15z
	 M857.89,439.54c0.14-65.37-16.27-123.91-52.91-174.9c-72.05-100.27-170.55-144.49-293.55-129.78
	c-67.84,8.12-126.14,38.36-173.53,87.3c-76.32,78.83-100.44,173.77-81.79,280.6c12.16,69.65,39.71,133.63,74.22,194.75
	c58.71,103.98,134.45,194.71,218.58,278.84c4.69,4.69,6.71,3.35,10.59-0.49c23.43-23.13,45.98-47.09,67.79-71.71
	c77.6-87.61,145.78-181.54,191.27-290.27C842.23,557.38,857.91,498.92,857.89,439.54z"/>
<path class="st0" d="M726.67,435.67c-0.13,95.88-77.68,173.92-172.74,173.85c-95.1-0.08-172.66-78.31-172.55-174.04
	c0.11-95.85,77.7-173.95,172.74-173.86C649.22,261.69,726.8,339.96,726.67,435.67z M657.64,435.84
	c0.12-57.56-46.75-105.14-103.59-105.17c-56.42-0.03-103.32,47.11-103.64,104.15c-0.31,57.72,45.83,105,103.1,105.65
	C609.94,541.1,657.52,493.29,657.64,435.84z"/>
</svg>
