<?xml version="1.0" encoding="utf-8"?>
<!-- Generator: Adobe Illustrator 25.4.1, SVG Export Plug-In . SVG Version: 6.00 Build 0)  -->
<svg version="1.1" id="Capa_1" xmlns="http://www.w3.org/2000/svg" xmlns:xlink="http://www.w3.org/1999/xlink" x="0px" y="0px"
	 viewBox="0 0 1080 1080" style="enable-background:new 0 0 1080 1080;" xml:space="preserve">
<style type="text/css">
	.st0{fill:url(#SVGID_1_);}
</style>
<g>
	<linearGradient id="SVGID_1_" gradientUnits="userSpaceOnUse" x1="-2067.6255" y1="657.8148" x2="4186.6143" y2="413.6902">
		<stop  offset="0" style="stop-color:#A57D24"/>
		<stop  offset="0.1613" style="stop-color:#EBDD80"/>
		<stop  offset="0.2796" style="stop-color:#F0EEA8"/>
		<stop  offset="0.3871" style="stop-color:#EBDD80"/>
		<stop  offset="0.5565" style="stop-color:#D2BA5B"/>
		<stop  offset="0.8493" style="stop-color:#A57D24"/>
		<stop  offset="1" style="stop-color:#A57D24"/>
	</linearGradient>
	<path class="st0" d="M569.31,342.37c-117.64,0-212.52,94.89-212.52,212.52s94.89,212.52,212.52,212.52s212.52-94.89,212.52-212.52
		S686.95,342.37,569.31,342.37z M569.31,693.06c-76.02,0-138.17-61.96-138.17-138.17s61.96-138.17,138.17-138.17
		s138.17,61.96,138.17,138.17S645.33,693.06,569.31,693.06L569.31,693.06z M840.1,333.67c0,27.56-22.2,49.57-49.57,49.57
		c-27.56,0-49.57-22.2-49.57-49.57s22.2-49.57,49.57-49.57C817.9,284.1,840.1,306.3,840.1,333.67z M980.86,383.98
		c-3.14-66.4-18.31-125.22-66.96-173.68c-48.46-48.46-107.28-63.63-173.68-66.96c-68.44-3.88-273.56-3.88-342,0
		c-66.22,3.14-125.04,18.31-173.68,66.77S160.92,317.4,157.59,383.8c-3.88,68.44-3.88,273.56,0,342
		c3.14,66.4,18.31,125.22,66.96,173.68c48.65,48.46,107.28,63.63,173.68,66.96c68.44,3.88,273.56,3.88,342,0
		c66.4-3.14,125.22-18.31,173.68-66.96c48.46-48.46,63.63-107.28,66.96-173.68C984.74,657.36,984.74,452.42,980.86,383.98
		L980.86,383.98z M892.45,799.23c-14.43,36.25-42.36,64.18-78.79,78.79c-54.56,21.64-184.04,16.65-244.34,16.65
		c-60.3,0-189.96,4.81-244.34-16.65c-36.25-14.43-64.18-42.36-78.79-78.79c-21.64-54.56-16.65-184.04-16.65-244.34
		s-4.81-189.96,16.65-244.34c14.43-36.25,42.36-64.18,78.79-78.79c54.56-21.64,184.04-16.65,244.34-16.65
		c60.3,0,189.96-4.81,244.34,16.65c36.25,14.43,64.18,42.36,78.79,78.79c21.64,54.56,16.65,184.04,16.65,244.34
		S914.09,744.85,892.45,799.23z"/>
</g>
</svg>
