<?xml version="1.0" encoding="utf-8"?>
<!-- Generator: Adobe Illustrator 25.4.1, SVG Export Plug-In . SVG Version: 6.00 Build 0)  -->
<svg version="1.1" id="Capa_1" xmlns="http://www.w3.org/2000/svg" xmlns:xlink="http://www.w3.org/1999/xlink" x="0px" y="0px"
	 viewBox="0 0 1080 1080" style="enable-background:new 0 0 1080 1080;" xml:space="preserve">
<style type="text/css">
	.st0{fill:#090909;}
</style>
<path class="st0" d="M787.77,1045.99c-43.96-4-86.22-15.18-127.48-30.41c-98.15-36.24-185.28-91.24-265.89-157.13
	c-114.01-93.21-209.07-202.6-280.78-331.61c-34.4-61.88-60.87-126.92-74.31-196.77c-2.18-11.36-3.33-22.91-5.05-34.36
	c-1.85-12.28,3.23-22.74,8.86-32.88c28.65-51.54,65.16-97.34,104.12-141.27c23.34-26.31,48.42-50.71,76.45-72.24
	c36.33-27.9,70.79-12.95,89.64,12.66c49.92,67.81,96.83,137.8,130.17,215.65c19.18,44.77,14.31,63.8-21.97,96.73
	c-15.86,14.4-32.27,28.2-48.74,41.91c-4.94,4.11-6.65,7.41-4.14,14.1c50.82,135.85,144.15,229.11,279.62,280.55
	c6.99,2.65,11.05,1.7,15.97-4.17c16.46-19.65,33.37-38.94,50.64-57.89c20.99-23.03,46.03-28.46,75.45-17.32
	c39.56,14.98,76,35.8,112.01,57.54c36.65,22.13,72.14,46.04,107.26,70.52c15.76,10.99,27.23,24.96,33.28,43.44
	c4.42,13.5,3.44,26.11-3.44,38.5c-7.03,12.65-15.38,24.36-25.06,35.04c-57.48,63.41-122.93,117.09-196.99,160.09
	C808.35,1041.92,798.91,1046.89,787.77,1045.99z M672.18,787.16c-12.54-3.26-25.33-5.74-37.56-9.89
	C524.76,739.95,436.49,673.42,369.97,578.6c-35.24-50.23-62.85-104.36-75.58-165.15c-1.39-6.63-0.07-11.39,3.84-16.35
	c13.78-17.49,29.89-32.6,47.15-46.52c12.59-10.15,24.85-20.63,36.65-31.68c3.28-3.08,4.09-5.44,2.03-9.81
	c-33.03-69.94-72.17-136.23-117.79-198.7c-3.82-5.24-6.27-6.25-11.75-1.2c-57.07,52.67-106.83,111.44-149.11,176.58
	c-2.92,4.49-3.65,8.51-2.91,13.73c7.6,53.62,24.79,104.37,48.67,152.56c91.93,185.5,229.44,329.4,404.57,437.98
	c68.94,42.74,142.52,74.86,223.57,87.37c6.51,1,11.3-0.3,16.58-3.76c63.15-41.39,120.6-89.5,171.8-145.03
	c8.92-9.67,8.96-9.64-1.26-17.09C905.32,767.04,840.43,729,772.2,696.51c-6.25-2.98-9.45-1.4-13.18,3.09
	c-9.65,11.61-19.55,23.01-29.18,34.64c-14.59,17.62-29.89,34.52-48.23,48.38C678.9,784.67,676.41,787.57,672.18,787.16z"/>
</svg>
