<?xml version="1.0" encoding="utf-8"?>
<!-- Generator: Adobe Illustrator 25.4.1, SVG Export Plug-In . SVG Version: 6.00 Build 0)  -->
<svg version="1.1" id="Capa_1" xmlns="http://www.w3.org/2000/svg" xmlns:xlink="http://www.w3.org/1999/xlink" x="0px" y="0px"
	 viewBox="0 0 1080 1080" style="enable-background:new 0 0 1080 1080;" xml:space="preserve">
<style type="text/css">
	.st0{fill:url(#SVGID_1_);}
</style>
<g>
	<linearGradient id="SVGID_1_" gradientUnits="userSpaceOnUse" x1="-3668.8616" y1="700.3284" x2="3180.4094" y2="432.9777">
		<stop  offset="0" style="stop-color:#A57D24"/>
		<stop  offset="0.1613" style="stop-color:#EBDD80"/>
		<stop  offset="0.2796" style="stop-color:#F0EEA8"/>
		<stop  offset="0.3871" style="stop-color:#EBDD80"/>
		<stop  offset="0.5901" style="stop-color:#D2BA5B"/>
		<stop  offset="0.9408" style="stop-color:#A57D24"/>
		<stop  offset="1" style="stop-color:#A57D24"/>
	</linearGradient>
	<path class="st0" d="M857.82,218.13C772.94,133.06,659.92,86.26,539.8,86.26c-247.93,0-449.68,201.75-449.68,449.68
		c0,79.2,20.66,156.58,59.96,224.84L86.26,993.74l238.41-62.59c65.63,35.85,139.56,54.69,214.92,54.69h0.2
		c247.73,0,453.94-201.75,453.94-449.68C993.74,416.03,942.69,303.21,857.82,218.13z M539.8,910.08
		c-67.25,0-133.08-18.03-190.41-52.06l-13.57-8.1l-141.39,37.07l37.68-137.94l-8.91-14.18c-37.47-59.55-57.12-128.22-57.12-198.91
		c0-206,167.72-373.72,373.93-373.72c99.86,0,193.65,38.89,264.14,109.59s113.84,164.48,113.64,264.34
		C917.78,742.36,745.8,910.08,539.8,910.08z M744.79,630.14c-11.14-5.67-66.44-32.81-76.77-36.46c-10.33-3.85-17.83-5.67-25.32,5.67
		c-7.49,11.34-28.97,36.46-35.65,44.16c-6.48,7.49-13.17,8.51-24.31,2.84c-66.03-33.02-109.38-58.95-152.93-133.69
		c-11.55-19.85,11.55-18.43,33.02-61.38c3.65-7.49,1.82-13.98-1.01-19.65c-2.84-5.67-25.32-60.97-34.64-83.46
		c-9.12-21.88-18.43-18.84-25.32-19.24c-6.48-0.41-13.98-0.41-21.47-0.41c-7.49,0-19.65,2.84-29.98,13.98
		c-10.33,11.34-39.3,38.49-39.3,93.79s40.31,108.78,45.78,116.27c5.67,7.49,79.2,120.93,192.03,169.75
		c71.3,30.79,99.25,33.42,134.91,28.16c21.67-3.24,66.44-27.14,75.76-53.48s9.32-48.82,6.48-53.48
		C763.42,638.44,755.93,635.61,744.79,630.14z"/>
</g>
</svg>
